<svg width="24" height="24" viewBox="0 0 24 24" fill="none" xmlns="http://www.w3.org/2000/svg">
<path d="M7.8791 6.73172L10.7659 0.766943C11.0992 0.0786992 11.9059 -0.196598 12.5659 0.149288C12.8226 0.286937 13.0326 0.505764 13.1626 0.777532L15.8894 6.53055C16.1094 6.99996 16.5461 7.32114 17.0461 7.38467L22.753 8.09409C23.5297 8.18939 24.0831 8.92352 23.9897 9.73176C23.9531 10.0635 23.8064 10.3741 23.5764 10.6071L19.0629 15.2236C18.8829 15.4107 18.7929 15.6754 18.8262 15.9401L19.5762 22.1696C19.6829 23.0625 19.0762 23.8778 18.2195 23.9872C17.8962 24.0296 17.5661 23.9661 17.2795 23.8037L12.5126 21.1001C12.1693 20.906 11.7526 20.899 11.4026 21.086L6.46571 23.7155C5.76902 24.0861 4.91898 23.7966 4.5623 23.0731C4.42897 22.8013 4.38229 22.4943 4.4223 22.1943L4.81898 19.3354C5.00899 17.9377 5.84569 16.7236 7.0524 16.0813L12.5393 13.1765C12.686 13.0989 12.7426 12.9118 12.6693 12.76C12.6093 12.64 12.4859 12.573 12.3626 12.5942L5.65235 13.5895C4.62564 13.7412 3.5856 13.4412 2.78223 12.76L0.548813 10.8682C-0.0878788 10.3282 -0.18455 9.35411 0.332137 8.68704C0.572147 8.37998 0.918827 8.1788 1.29884 8.12586L7.02573 7.3635C7.39241 7.31409 7.71243 7.07761 7.8791 6.73172Z" fill="white"/>
</svg>
